<?xml version="1.0" encoding="UTF-8"?>
<svg version="1.1" xmlns="http://www.w3.org/2000/svg" width="3464" height="3464">
<path d="M0 0 C1143.12 0 2286.24 0 3464 0 C3464 1143.12 3464 2286.24 3464 3464 C2320.88 3464 1177.76 3464 0 3464 C0 2320.88 0 1177.76 0 0 Z " fill="#000000" transform="translate(0,0)"/>
<path d="M0 0 C306.219375 -0.020625 612.43875 -0.04125 927.9375 -0.0625 C1024.824646 -0.071604 1121.71179199 -0.08070801 1221.53491211 -0.09008789 C1339.34289551 -0.09460449 1339.34289551 -0.09460449 1394.39674377 -0.09544373 C1434.3370502 -0.0964108 1474.27735489 -0.10039259 1514.21766083 -0.10612545 C1556.28874852 -0.11214656 1598.3598352 -0.11496466 1640.43092333 -0.11356223 C1646.28627359 -0.11336797 1652.14162385 -0.11320941 1657.99697411 -0.11307228 C1659.14461359 -0.1130441 1660.29225308 -0.11301592 1661.47466951 -0.11298688 C1679.54191177 -0.1126346 1697.60915184 -0.11560486 1715.6763935 -0.12001978 C1733.23492252 -0.12424305 1750.79344867 -0.12496217 1768.35197796 -0.12183534 C1778.66435571 -0.12010739 1788.97672442 -0.12117641 1799.28910114 -0.12621637 C1806.13142583 -0.12929104 1812.97374399 -0.12880457 1819.81606847 -0.12530085 C1823.70691709 -0.12341192 1827.59774804 -0.12314726 1831.48859538 -0.12723528 C1835.65076942 -0.131575 1839.81290096 -0.12832205 1843.97507519 -0.1241985 C1845.19613241 -0.12670737 1846.41718964 -0.12921625 1847.6752486 -0.13180115 C1849.31742925 -0.12827181 1849.31742925 -0.12827181 1850.99278527 -0.12467116 C1852.41824382 -0.12476717 1852.41824382 -0.12476717 1853.87249952 -0.12486512 C1856 0 1856 0 1857 1 C1857.09987799 3.7241184 1857.13360393 6.42293931 1857.12584114 9.14758301 C1857.12729458 10.01626133 1857.12874802 10.88493965 1857.13024551 11.77994156 C1857.13393292 14.72896244 1857.13040649 17.67793251 1857.12698364 20.62695312 C1857.12813438 22.74725115 1857.12972158 24.86754897 1857.13171089 26.98784637 C1857.13591072 32.84407071 1857.13381059 38.70027888 1857.13072467 44.5565033 C1857.12847343 50.86058668 1857.1319488 57.16466718 1857.13470459 63.46875 C1857.1389061 75.11466244 1857.1385253 86.76056829 1857.13579312 98.40648091 C1857.13328174 109.16348457 1857.13261891 119.92048634 1857.13381577 130.67749023 C1857.13389215 131.38985861 1857.13396854 132.102227 1857.13404724 132.8361823 C1857.13435855 135.72761066 1857.13467695 138.61903902 1857.135007 141.51046738 C1857.13806891 168.65767195 1857.13528794 195.80487321 1857.1299101 222.95207727 C1857.12516418 247.09305329 1857.12558879 271.23402403 1857.13037109 295.375 C1857.13572083 322.47121512 1857.13785179 349.56742731 1857.13475883 376.66364288 C1857.13443809 379.54993184 1857.13412525 382.4362208 1857.13381577 385.32250977 C1857.13373669 386.03323519 1857.13365761 386.74396061 1857.13357614 387.47622317 C1857.13243664 398.22885987 1857.1337727 408.98149445 1857.13629532 419.73413086 C1857.13914806 431.95518482 1857.13835694 444.17623097 1857.13301457 456.39728451 C1857.13037636 462.63929028 1857.12937452 468.88128531 1857.13266373 475.12329102 C1857.13562423 480.82754796 1857.13403802 486.53178413 1857.12868617 492.23603916 C1857.12756093 494.30936443 1857.12815551 496.38269141 1857.13056196 498.45601559 C1857.1335635 501.25484171 1857.13052403 504.05359482 1857.12584114 506.85241699 C1857.12818231 507.67413769 1857.13052347 508.49585838 1857.13293558 509.34247971 C1857.11415034 514.88584966 1857.11415034 514.88584966 1856 516 C1853.45758628 516.09929863 1850.94231962 516.13252543 1848.39937538 516.1241985 C1847.58839503 516.12547658 1846.77741469 516.12675467 1845.94185918 516.12807148 C1843.18358633 516.13117053 1840.42536912 516.12704928 1837.66709805 516.12304783 C1835.67740334 516.12378651 1833.68770875 516.12496407 1831.69801453 516.12654433 C1826.17820926 516.1296349 1820.6584222 516.12642051 1815.13861829 516.12226619 C1809.15332349 516.11885021 1803.16803066 516.12119929 1797.1827355 516.12284368 C1786.67550974 516.1249238 1776.16828892 516.12329538 1765.66106415 516.11920547 C1754.38164523 516.11483427 1743.10222901 516.11263209 1731.82280922 516.11310768 C1731.11158951 516.11313637 1730.4003698 516.11316507 1729.66759797 516.11319463 C1726.04137602 516.11335099 1722.41515408 516.11354294 1718.78893213 516.11374746 C1692.51122833 516.11515666 1666.23352695 516.11171826 1639.9558239 516.10573006 C1613.92418341 516.09981207 1587.89254395 516.09595587 1561.86090279 516.09487724 C1561.05312436 516.09484283 1560.24534594 516.09480842 1559.41308938 516.09477296 C1552.03551894 516.09445977 1544.65794851 516.09417208 1537.28037807 516.09391499 C1518.93873989 516.09327551 1500.59710175 516.09231613 1482.2554636 516.09113979 C1481.42013051 516.09108648 1480.58479742 516.09103316 1479.72415121 516.09097823 C1439.06797216 516.0883553 1398.4117938 516.08204716 1357.75561523 516.07543945 C1343.64308676 516.07314784 1329.53055828 516.0708725 1315.41802979 516.06866455 C1314.54279587 516.0685276 1313.66756196 516.06839065 1312.7658058 516.06824955 C1272.09531247 516.06190808 1231.42481902 516.05818073 1190.75432533 516.05512976 C1188.11468845 516.05493169 1185.47505156 516.0547325 1182.83541468 516.05453308 C1165.34272999 516.05321332 1147.8500453 516.05193867 1130.35736061 516.05069422 C1095.54983289 516.04821757 1060.74230519 516.04547588 1025.9347775 516.04255217 C1024.27706893 516.04241293 1022.61936036 516.04227388 1020.9616518 516.04213501 C969.89093319 516.03785569 918.82021481 516.03237992 867.74949646 516.02565002 C865.68906406 516.02537919 863.62863167 516.02510836 861.56819927 516.02483763 C804.37879941 516.01728615 747.18939973 516.00848022 690 516 C690 613.35 690 710.7 690 811 C1019.67 811 1349.34 811 1689 811 C1689 974.02 1689 1137.04 1689 1305 C1359 1305 1029 1305 689 1305 C689 1412.91 689 1520.82 689 1632 C1081.37 1632 1473.74 1632 1878 1632 C1878 1802.28 1878 1972.56 1878 2148 C1258.26 2148 638.52 2148 0 2148 C0 1439.16 0 730.32 0 0 Z " fill="#FEFEFE" transform="translate(788,658)"/>
</svg>
